<svg width="133" height="133" viewBox="0 0 133 133" fill="none" xmlns="http://www.w3.org/2000/svg">
<rect width="133" height="133" fill="url(#paint0_radial_5131_695)"/>
<path d="M58.0938 92.5625L62.875 83.6562L45.4375 57.0312H38.75V52.3438H60.0938V57.0312H53.4688L66.375 77.1562L77.1875 57.0312H69.5938V52.3438H90.4062V57.0312H84.0625L62.125 97.25H50.1562V92.5625H58.0938ZM63.75 99.4375L85.7188 59.2188H92.6562V54.0938H93.9062V60.4062H86.4375L64.5312 100.625H52.0312V99.4375H63.75ZM57.875 59.2188H62.3438V54.0938H63.5938V60.4062H60.0938L67.3125 71.6562L66.625 72.9062L57.875 59.2188ZM71.125 59.2188H74.375L73.75 60.4062H71.125V59.2188ZM40.625 59.2188H45.1562L45.9375 60.4062H40.625V59.2188Z" fill="white"/>
<defs>
<radialGradient id="paint0_radial_5131_695" cx="0" cy="0" r="1" gradientUnits="userSpaceOnUse" gradientTransform="translate(66.5 66.5) rotate(90) scale(66.5)">
<stop stop-color="#FF0000"/>
<stop offset="1" stop-color="#8C1111"/>
</radialGradient>
</defs>
</svg>
